<svg width="107" height="70" viewBox="0 0 107 70" fill="none" xmlns="http://www.w3.org/2000/svg">
<path d="M105.054 69.9993H1.84315C0.825323 69.9993 0 69.1745 0 68.1572V1.84217C0 0.824886 0.825323 0 1.84315 0H105.055C106.072 0 106.898 0.824886 106.898 1.84217V68.1572C106.897 69.1747 106.072 69.9993 105.054 69.9993Z" fill="#41479B"/>
<path d="M51.6056 0.000976562H48.4041L31.3318 11.1805V0.000976562H22.1165V11.1805L5.04422 0.000976562H1.84315C0.825323 0.000976562 0 0.825653 0 1.84294V3.30407L14.6472 12.8953H0V22.1058H14.6472L0 31.6972V33.1584C0 34.1756 0.825323 35.0005 1.84315 35.0005H5.04464L22.1169 23.8211V35.0005H31.3322V23.8211L48.4043 35.0005H51.6058C52.6236 35.0005 53.4489 34.1756 53.4489 33.1584V31.6972L38.8017 22.106H53.4487V12.8955H38.8015L53.4487 3.30428V1.84315C53.4487 0.825655 52.6234 0.000976562 51.6056 0.000976562Z" fill="#F5F5F5"/>
<path d="M53.4487 14.7377H29.4889V0.000976562H23.9599V14.7377H0V20.2638H23.9599V35.0005H29.4889V20.2638H53.4487V14.7377Z" fill="#FF4B55"/>
<path d="M20.2736 12.8949L0.878355 0.311646C0.36224 0.638011 0 1.18661 0 1.84227V1.93784L16.8883 12.8949H20.2736Z" fill="#FF4B55"/>
<path d="M34.7173 12.8948L53.1683 0.924043C52.8476 0.3817 52.2818 0.000244141 51.6056 0.000244141H51.207L31.332 12.8948H34.7173Z" fill="#FF4B55"/>
<path d="M18.6808 22.1052L0.265015 34.053C0.582575 34.6085 1.15715 34.9998 1.84321 34.9998H2.19084L22.0662 22.1052H18.6808Z" fill="#FF4B55"/>
<path d="M53.4194 33.3022L36.1601 22.1052H32.7748L52.3742 34.8208C52.9613 34.5484 53.3641 33.9777 53.4194 33.3022Z" fill="#FF4B55"/>
<path d="M27.2821 45.0433L28.6732 49.6335L33.1314 47.8587C33.5118 47.7072 33.8575 48.1408 33.6254 48.4776L30.902 52.4266L35.0697 54.8036C35.4253 55.0064 35.3019 55.5469 34.8935 55.5754L30.1063 55.9095L30.8456 60.6485C30.9087 61.0529 30.4088 61.2935 30.132 60.992L26.8858 57.4596L23.6396 60.992C23.3628 61.2933 22.863 61.0527 22.926 60.6485L23.6653 55.9095L18.8781 55.5754C18.4697 55.5469 18.3463 55.0064 18.7019 54.8036L22.8696 52.4266L20.1463 48.4776C19.9141 48.1408 20.2598 47.7072 20.6402 47.8587L25.0984 49.6335L26.4895 45.0433C26.6087 44.6516 27.1635 44.6516 27.2821 45.0433Z" fill="#F5F5F5"/>
<path d="M82.1104 12.4065L82.79 14.6487L84.9676 13.7818C85.1533 13.708 85.3224 13.9195 85.2088 14.0842L83.8786 16.0134L85.9145 17.1746C86.0882 17.2736 86.0278 17.5377 85.8283 17.5515L83.4899 17.7147L83.8509 20.0295C83.8818 20.2271 83.6375 20.3446 83.5022 20.1973L81.9165 18.4718L80.3308 20.1973C80.1955 20.3444 79.9514 20.2269 79.9821 20.0295L80.3431 17.7147L78.0047 17.5515C77.8051 17.5377 77.7448 17.2736 77.9185 17.1746L79.9543 16.0134L78.6242 14.0842C78.5106 13.9195 78.6797 13.708 78.8653 13.7818L81.0429 14.6487L81.7225 12.4065C81.7814 12.2151 82.0526 12.2151 82.1104 12.4065Z" fill="#F5F5F5"/>
<path d="M66.9575 29.617L67.6371 31.8592L69.8148 30.9924C70.0004 30.9185 70.1695 31.1301 70.0559 31.2948L68.7257 33.224L70.7616 34.3852C70.9353 34.4841 70.875 34.7483 70.6754 34.7621L68.337 34.9253L68.698 37.2401C68.7289 37.4377 68.4846 37.5552 68.3493 37.4079L66.7636 35.6823L65.1779 37.4079C65.0426 37.555 64.7985 37.4375 64.8292 37.2401L65.1902 34.9253L62.8518 34.7621C62.6522 34.7483 62.5919 34.4841 62.7656 34.3852L64.8014 33.224L63.4713 31.2948C63.3577 31.1301 63.5268 30.9185 63.7124 30.9924L65.89 31.8592L66.5696 29.617C66.6285 29.4257 66.8995 29.4257 66.9575 29.617Z" fill="#F5F5F5"/>
<path d="M96.4464 22.2486L97.126 24.4908L99.3036 23.624C99.4892 23.5501 99.6583 23.7617 99.5448 23.9264L98.2146 25.8555L100.25 27.0168C100.424 27.1157 100.364 27.3799 100.164 27.3937L97.8258 27.5569L98.1868 29.8717C98.2177 30.0693 97.9735 30.1868 97.8384 30.0394L96.2527 28.3139L94.6669 30.0394C94.5317 30.1866 94.2876 30.0691 94.3183 29.8717L94.6793 27.5569L92.3409 27.3937C92.1413 27.3799 92.0809 27.1157 92.2547 27.0168L94.2905 25.8555L92.9603 23.9264C92.8468 23.7617 93.0159 23.5501 93.2015 23.624L95.3791 24.4908L96.0587 22.2486C96.1174 22.0573 96.3884 22.0573 96.4464 22.2486Z" fill="#F5F5F5"/>
<path d="M82.1104 51.722L82.79 53.9642L84.9676 53.0972C85.1533 53.0233 85.3224 53.2349 85.2088 53.3995L83.8786 55.3287L85.9145 56.49C86.0882 56.5889 86.0278 56.8531 85.8283 56.8669L83.4899 57.03L83.8509 59.3449C83.8818 59.5425 83.6375 59.66 83.5022 59.5126L81.9165 57.7871L80.3308 59.5126C80.1955 59.6597 79.9514 59.5423 79.9821 59.3449L80.3431 57.03L78.0047 56.8669C77.8051 56.8531 77.7448 56.5889 77.9185 56.49L79.9543 55.3287L78.6242 53.3995C78.5106 53.2349 78.6797 53.0233 78.8653 53.0972L81.0429 53.9642L81.7225 51.722C81.7814 51.5307 82.0526 51.5307 82.1104 51.722Z" fill="#F5F5F5"/>
<path d="M87.3681 33.646L86.8226 35.2812L85.0982 35.2946C84.875 35.2964 84.7823 35.5811 84.9621 35.7136L86.3493 36.7375L85.829 38.3808C85.7617 38.5937 86.0041 38.7696 86.1856 38.6398L87.5886 37.6375L88.9916 38.6398C89.1733 38.7696 89.4155 38.5935 89.3482 38.3808L88.8279 36.7375L90.2151 35.7136C90.3949 35.5809 90.3022 35.2964 90.079 35.2946L88.3546 35.2812L87.8091 33.646C87.7383 33.4342 87.4387 33.4342 87.3681 33.646Z" fill="#F5F5F5"/>
</svg>
