<svg width="107" height="70" viewBox="0 0 107 70" fill="none" xmlns="http://www.w3.org/2000/svg">
<path d="M105.053 69.9986H1.84313C0.825315 69.9986 0 69.1738 0 68.1565V1.84215C0 0.824877 0.825315 0 1.84313 0H105.053C106.071 0 106.897 0.824877 106.897 1.84215V68.1565C106.896 69.174 106.071 69.9986 105.053 69.9986Z" fill="#F5F5F5"/>
<path d="M82.9364 0.0010376H23.9597V69.9999H82.9364V0.0010376Z" fill="#F5F5F5"/>
<path d="M1.84313 0.000976562C0.825315 0.000976562 0 0.825645 0 1.84292V68.1572C0 69.1745 0.825315 69.9994 1.84313 69.9994H23.9596V0.000976562H1.84313Z" fill="#FF4B55"/>
<path d="M105.053 0.000183105H82.9368V69.9986H105.053C106.071 69.9986 106.896 69.1737 106.896 68.1564V1.84212C106.896 0.824852 106.071 0.000183105 105.053 0.000183105Z" fill="#FF4B55"/>
<path d="M64.6323 43.0875L75.569 36.8416L73.0594 35.5875C72.3556 35.2356 71.9526 34.4761 72.0568 33.6963L72.8734 27.5776L68.2432 28.924C67.2204 29.2215 66.1589 28.5926 65.9289 27.5532L65.4854 25.5499L61.1379 30.6353C60.5352 31.3402 59.3871 30.8018 59.5443 29.8878L61.401 19.0978L58.5584 19.8749C57.7281 20.102 56.8512 19.7243 56.4464 18.9651L53.4531 13.3579V13.3495L53.451 13.3537L53.4487 13.3495V13.3579L50.4554 18.9651C50.0502 19.724 49.1733 20.1017 48.343 19.8749L45.5002 19.0978L47.3569 29.8878C47.5141 30.8014 46.3658 31.34 45.763 30.6353L41.4156 25.5499L40.9721 27.5532C40.742 28.5928 39.6806 29.2213 38.6578 28.924L34.0276 27.5776L34.8442 33.6963C34.9483 34.4759 34.5454 35.2356 33.8416 35.5875L31.332 36.8416L42.2687 43.0877C43.4015 43.7348 43.898 45.1071 43.441 46.3284L42.506 48.8277L51.8772 48.028C52.3958 47.9838 52.8372 48.4011 52.822 48.9209L52.5267 58.9464H54.3699L54.0744 48.9205C54.0592 48.4005 54.5006 47.9834 55.0192 48.0276L64.3947 48.8277L63.4598 46.3284C63.0032 45.1068 63.4995 43.7344 64.6323 43.0875Z" fill="#FF4B55"/>
</svg>
