<svg width="107" height="70" viewBox="0 0 107 70" fill="none" xmlns="http://www.w3.org/2000/svg">
<path d="M105 70H1.84219C0.824894 70 0 69.1751 0 68.1578V1.84219C0 0.824893 0.824894 0 1.84219 0H105C106.017 0 106.842 0.824893 106.842 1.84219V68.1578C106.842 69.1753 106.017 70 105 70Z" fill="#FF4B55"/>
<path d="M46.8429 37.6966C44.5207 37.7206 41.9131 36.9769 39.6283 34.4584C39.4708 34.2848 39.4929 34.0112 39.672 33.8595L39.6726 33.8589C39.8462 33.7117 40.1029 33.7345 40.2562 33.9029C43.739 37.7273 48.0557 37.0576 50.6347 36.1336C49.6819 36.176 48.4847 36.1044 47.7147 35.5984C44.498 33.4839 45.955 31.2343 43.8185 28.5151C41.6957 25.8132 39.7855 25.8793 36.7776 26.3353C33.7998 26.7864 32.8512 24.6022 32.5559 23.39C32.5031 23.1728 32.2001 23.1592 32.1225 23.3685C28.411 33.3962 39.571 45.8041 51.0287 36.8826C49.8981 37.2989 48.442 37.6803 46.8429 37.6966ZM38.4819 34.2937C38.4168 34.4728 38.1611 34.4657 38.1058 34.2833L37.6785 32.875L36.2075 32.8234C36.017 32.8167 35.9448 32.5715 36.1011 32.4626L37.3085 31.621L36.903 30.206C36.8504 30.023 37.0614 29.8784 37.2133 29.9931L38.3869 30.8813L39.6073 30.0582C39.7652 29.9516 39.9681 30.1075 39.9055 30.2876L39.4234 31.6782L40.5832 32.5845C40.7333 32.702 40.6477 32.9428 40.4572 32.939L38.9856 32.9102L38.4819 34.2937Z" fill="#F5F5F5"/>
<path d="M55.0631 31.0342C56.9069 29.6225 59.4394 28.6539 62.7782 29.2987C63.0084 29.3431 63.1549 29.5752 63.1027 29.8039L63.1025 29.8047C63.0518 30.0267 62.8327 30.1624 62.609 30.1194C57.5286 29.1476 54.4756 32.2723 52.9663 34.5583C53.7033 33.953 54.7043 33.2923 55.624 33.2357C59.4661 32.9985 59.6491 35.6727 62.9898 36.5672C66.3088 37.456 67.7977 36.2578 69.9316 34.089C72.0438 31.942 74.113 33.121 75.0761 33.9139C75.2484 34.056 75.4991 33.8854 75.4356 33.6712C72.3919 23.4211 56.02 20.1852 52.2019 34.1957C52.8565 33.185 53.7933 32.0064 55.0631 31.0342ZM63.7945 28.7432C63.7392 28.5608 63.948 28.413 64.1016 28.5257L65.2882 29.3963L66.4962 28.5554C66.6525 28.4464 66.8574 28.5994 66.7979 28.7803L66.3365 30.178L67.5095 31.067C67.6614 31.1822 67.5792 31.4244 67.3889 31.4234L65.9171 31.4165L65.4342 32.8069C65.3716 32.987 65.116 32.9837 65.058 32.8023L64.6098 31.4004L63.1382 31.3708C62.9477 31.3668 62.8717 31.1229 63.0265 31.0117L64.2214 30.1521L63.7945 28.7432Z" fill="#F5F5F5"/>
<path d="M48.9133 32.0006C48.0077 29.8621 47.703 27.1679 49.1627 24.0966C49.2633 23.8848 49.5248 23.8011 49.733 23.909L49.7339 23.9094C49.9361 24.014 50.0124 24.2602 49.9154 24.4659C47.7037 29.1419 49.9657 32.8793 51.8014 34.9125C51.3995 34.0473 51.0105 32.9131 51.1854 32.0083C51.9168 28.229 54.5515 28.7204 56.2533 25.7097C57.9442 22.7183 57.1562 20.9771 55.5901 18.3689C54.0397 15.7867 55.6988 14.0783 56.7076 13.3442C56.8881 13.2127 56.7856 12.9274 56.5626 12.9354C45.8769 13.3187 38.6488 28.3607 51.2589 35.5616C50.444 34.6748 49.5371 33.4732 48.9133 32.0006ZM48.8789 22.9737C48.6884 22.9816 48.5978 22.7425 48.7454 22.6221L49.8851 21.691L49.3731 20.311C49.3067 20.1324 49.5062 19.9721 49.6662 20.0752L50.9041 20.8715L52.0581 19.9581C52.2075 19.8398 52.4214 19.9798 52.3728 20.1643L51.998 21.5875L53.2231 22.4028C53.3817 22.5084 53.3147 22.755 53.1246 22.7659L51.6551 22.8491L51.2584 24.2665C51.2071 24.4499 50.9517 24.4624 50.8826 24.2848L50.3492 22.9132L48.8789 22.9737Z" fill="#F5F5F5"/>
<path d="M57.2392 36.8529C59.1586 38.1601 60.8739 40.2602 61.31 43.6326C61.3403 43.8653 61.1656 44.0771 60.9321 44.0994H60.9309C60.7043 44.1211 60.5066 43.9554 60.477 43.7298C59.804 38.6012 55.8784 36.6843 53.2339 35.9692C54.04 36.4788 54.9815 37.2217 55.3244 38.077C56.7563 41.6502 54.2752 42.6641 54.4749 46.1167C54.6733 49.5469 56.2791 50.584 59.0081 51.9287C61.7099 53.2599 61.2406 55.5943 60.7898 56.7581C60.7093 56.9666 60.9499 57.1506 61.1331 57.0231C69.9083 50.9139 67.8387 34.3545 53.338 35.1299C54.5047 35.434 55.9177 35.9529 57.2392 36.8529ZM62.1571 44.4229C62.3129 44.3131 62.5185 44.465 62.4599 44.6461L62.006 46.0461L63.1837 46.9291C63.3361 47.0432 63.2555 47.2859 63.065 47.2861L61.5932 47.2869L61.1176 48.6798C61.0561 48.8601 60.8003 48.8583 60.7414 48.6771L60.2857 47.2775L58.8141 47.2556C58.6233 47.2529 58.5464 47.009 58.7004 46.8969L59.8906 46.0309L59.4566 44.6244C59.4005 44.4423 59.6083 44.2935 59.7625 44.4055L60.9538 45.2699L62.1571 44.4229Z" fill="#F5F5F5"/>
<path d="M52.4386 41.0145C51.7775 43.2407 50.2989 45.5136 47.219 46.9553C47.0066 47.0549 46.7518 46.953 46.6596 46.7375L46.6591 46.7366C46.5696 46.5273 46.6673 46.2888 46.873 46.1918C51.5536 43.99 52.1853 39.6675 52.0617 36.9308C51.8216 37.8539 51.4004 38.9766 50.6901 39.5636C47.7221 42.0149 46.0012 39.9599 42.7732 41.2009C39.5658 42.4337 39.0665 44.2789 38.6159 47.2877C38.1702 50.2664 35.8032 50.5295 34.5578 50.4546C34.335 50.4413 34.2325 50.7265 34.4097 50.8624C42.8994 57.3626 58.0438 50.3524 52.8929 36.7753C52.9584 37.9777 52.8939 39.4814 52.4386 41.0145ZM46.7238 48.0023C46.8757 48.1174 46.7937 48.3593 46.6032 48.3587L45.1316 48.3522L44.6492 49.7428C44.5868 49.9229 44.3309 49.9196 44.2729 49.7382L43.8241 48.3363L42.3525 48.3071C42.162 48.3034 42.0858 48.0592 42.2406 47.948L43.4351 47.088L43.0081 45.6795C42.9528 45.4971 43.1615 45.3494 43.3151 45.462L44.5021 46.3322L45.7099 45.4908C45.8662 45.3819 46.0711 45.5349 46.0116 45.7158L45.5509 47.1135L46.7238 48.0023Z" fill="#F5F5F5"/>
</svg>
