<svg width="107" height="70" viewBox="0 0 107 70" fill="none" xmlns="http://www.w3.org/2000/svg">
<path d="M105 70H1.84219C0.824894 70 0 69.1751 0 68.1578V1.84219C0 0.824893 0.824894 0 1.84219 0H105C106.017 0 106.842 0.824893 106.842 1.84219V68.1578C106.842 69.1753 106.017 70 105 70Z" fill="#FF4B55"/>
<path d="M105 70H1.84219C0.824894 70 0 69.1751 0 68.1578V1.84219C0 0.824893 0.824894 0 1.84219 0H105C106.017 0 106.842 0.824893 106.842 1.84219V68.1578C106.842 69.1753 106.017 70 105 70Z" fill="#BDBDBD"/>
<path d="M46.8429 37.6965C44.5207 37.7205 41.9131 36.9768 39.6283 34.4583C39.4708 34.2847 39.4929 34.0111 39.672 33.8594L39.6726 33.8588C39.8462 33.7117 40.1029 33.7344 40.2562 33.9028C43.739 37.7272 48.0557 37.0576 50.6347 36.1336C49.6819 36.1759 48.4847 36.1044 47.7147 35.5983C44.498 33.4838 45.955 31.2343 43.8185 28.515C41.6957 25.8131 39.7855 25.8793 36.7776 26.3352C33.7998 26.7864 32.8512 24.6022 32.5559 23.39C32.5031 23.1727 32.2001 23.1592 32.1225 23.3685C28.411 33.3962 39.571 45.804 51.0287 36.8825C49.8981 37.2988 48.442 37.6803 46.8429 37.6965ZM38.4819 34.2937C38.4168 34.4727 38.1611 34.4656 38.1058 34.2832L37.6785 32.8749L36.2075 32.8233C36.017 32.8167 35.9448 32.5715 36.1011 32.4625L37.3085 31.621L36.903 30.2059C36.8504 30.0229 37.0614 29.8783 37.2133 29.9931L38.3869 30.8812L39.6073 30.0582C39.7652 29.9516 39.9681 30.1074 39.9055 30.2875L39.4234 31.6781L40.5832 32.5844C40.7333 32.7019 40.6477 32.9427 40.4572 32.939L38.9856 32.9102L38.4819 34.2937Z" fill="#F5F5F5"/>
<path d="M55.0631 31.0342C56.9069 29.6225 59.4394 28.6538 62.7782 29.2986C63.0084 29.3431 63.1549 29.5751 63.1027 29.8038L63.1025 29.8047C63.0518 30.0267 62.8327 30.1623 62.609 30.1194C57.5286 29.1476 54.4756 32.2723 52.9663 34.5583C53.7033 33.9529 54.7043 33.2923 55.624 33.2357C59.4661 32.9985 59.6491 35.6726 62.9898 36.5672C66.3088 37.456 67.7977 36.2578 69.9316 34.089C72.0438 31.9419 74.113 33.1209 75.0761 33.9139C75.2484 34.056 75.4991 33.8853 75.4356 33.6712C72.3919 23.4211 56.02 20.1851 52.2019 34.1956C52.8565 33.185 53.7933 32.0064 55.0631 31.0342ZM63.7945 28.7431C63.7392 28.5608 63.948 28.413 64.1016 28.5257L65.2882 29.3963L66.4962 28.5553C66.6525 28.4464 66.8574 28.5994 66.7979 28.7803L66.3365 30.178L67.5095 31.0669C67.6614 31.1821 67.5792 31.4244 67.3889 31.4234L65.9171 31.4165L65.4342 32.8069C65.3716 32.987 65.116 32.9836 65.058 32.8023L64.6098 31.4004L63.1382 31.3708C62.9477 31.3668 62.8717 31.1229 63.0265 31.0116L64.2214 30.1521L63.7945 28.7431Z" fill="#F5F5F5"/>
<path d="M48.9133 32.0006C48.0077 29.8621 47.703 27.1678 49.1627 24.0966C49.2633 23.8848 49.5248 23.8011 49.733 23.909L49.7339 23.9094C49.9361 24.0139 50.0124 24.2602 49.9154 24.4659C47.7037 29.1419 49.9657 32.8793 51.8014 34.9124C51.3995 34.0473 51.0105 32.9131 51.1854 32.0083C51.9168 28.229 54.5515 28.7204 56.2533 25.7096C57.9442 22.7183 57.1562 20.9771 55.5901 18.3688C54.0397 15.7867 55.6988 14.0783 56.7076 13.3441C56.8881 13.2127 56.7856 12.9274 56.5626 12.9353C45.8769 13.3187 38.6488 28.3606 51.2589 35.5616C50.444 34.6747 49.5371 33.4732 48.9133 32.0006ZM48.8789 22.9737C48.6884 22.9816 48.5978 22.7425 48.7454 22.6221L49.8851 21.6909L49.3731 20.311C49.3067 20.1323 49.5062 19.9721 49.6662 20.0752L50.9041 20.8715L52.0581 19.9581C52.2075 19.8398 52.4214 19.9798 52.3728 20.1643L51.998 21.5874L53.2231 22.4027C53.3817 22.5083 53.3147 22.755 53.1246 22.7658L51.6551 22.8491L51.2584 24.2664C51.2071 24.4498 50.9517 24.4624 50.8826 24.2848L50.3492 22.9132L48.8789 22.9737Z" fill="#F5F5F5"/>
<path d="M57.2391 36.8529C59.1585 38.16 60.8738 40.2601 61.3099 43.6325C61.3402 43.8652 61.1655 44.077 60.932 44.0994H60.9308C60.7041 44.1211 60.5065 43.9554 60.4769 43.7298C59.8039 38.6012 55.8783 36.6843 53.2338 35.9691C54.0399 36.4787 54.9814 37.2216 55.3243 38.077C56.7562 41.6501 54.2751 42.6641 54.4748 46.1166C54.6732 49.5468 56.279 50.5839 59.008 51.9287C61.7097 53.2598 61.2404 55.5942 60.7897 56.758C60.7092 56.9665 60.9498 57.1505 61.133 57.023C69.9082 50.9139 67.8385 34.3544 53.3379 35.1299C54.5046 35.4339 55.9175 35.9529 57.2391 36.8529ZM62.1569 44.4228C62.3128 44.313 62.5184 44.465 62.4597 44.6461L62.0059 46.0461L63.1836 46.929C63.336 47.0431 63.2554 47.2858 63.0649 47.286L61.5931 47.2869L61.1175 48.6798C61.056 48.8601 60.8001 48.8582 60.7413 48.6771L60.2855 47.2775L58.814 47.2556C58.6232 47.2529 58.5462 47.0089 58.7002 46.8969L59.8905 46.0309L59.4565 44.6244C59.4003 44.4422 59.6082 44.2934 59.7624 44.4055L60.9537 45.2698L62.1569 44.4228Z" fill="#F5F5F5"/>
<path d="M52.4385 41.0145C51.7774 43.2407 50.2987 45.5136 47.2189 46.9553C47.0065 47.0548 46.7517 46.953 46.6594 46.7374L46.659 46.7366C46.5695 46.5273 46.6671 46.2888 46.8729 46.1918C51.5535 43.99 52.1852 39.6675 52.0616 36.9307C51.8214 37.8539 51.4003 38.9766 50.69 39.5636C47.722 42.0149 46.0011 39.9599 42.7731 41.2009C39.5657 42.4337 39.0664 44.2788 38.6158 47.2877C38.1701 50.2664 35.8031 50.5295 34.5577 50.4546C34.3348 50.4412 34.2324 50.7265 34.4095 50.8623C42.8993 57.3626 58.0437 50.3523 52.8928 36.7753C52.9583 37.9777 52.8938 39.4814 52.4385 41.0145ZM46.7237 48.0022C46.8756 48.1174 46.7936 48.3593 46.6031 48.3586L45.1315 48.3522L44.649 49.7428C44.5867 49.9229 44.3308 49.9195 44.2728 49.7382L43.8239 48.3363L42.3524 48.3071C42.1618 48.3033 42.0857 48.0592 42.2405 47.948L43.435 47.088L43.008 45.6795C42.9527 45.4971 43.1614 45.3493 43.315 45.462L44.5019 46.3322L45.7097 45.4908C45.866 45.3819 46.071 45.5348 46.0115 45.7158L45.5507 47.1135L46.7237 48.0022Z" fill="#F5F5F5"/>
</svg>
