<svg width="107" height="70" viewBox="0 0 107 70" fill="none" xmlns="http://www.w3.org/2000/svg">
<path d="M106.842 23.3335H0V1.84219C0 0.824893 0.824894 0 1.84219 0H105C106.017 0 106.842 0.824893 106.842 1.84219L106.842 23.3335Z" fill="#FAB446"/>
<path d="M105 70H1.84219C0.824894 70 0 69.1751 0 68.1578V46.6667H106.842V68.1578C106.842 69.1753 106.017 70 105 70Z" fill="#73AF00"/>
<path d="M106.842 23.333H0V46.665H106.842V23.333Z" fill="#F5F5F5"/>
<path d="M53.4209 44.9014C47.9611 44.9014 43.5197 40.4599 43.5197 35.0001C43.5197 29.5403 47.9611 25.0989 53.4209 25.0989C58.8807 25.0989 63.3221 29.5403 63.3221 35.0001C63.3221 40.4599 58.8807 44.9014 53.4209 44.9014ZM53.4209 26.9409C48.9765 26.9409 45.3616 30.5557 45.3616 35.0001C45.3616 39.4445 48.9765 43.0594 53.4209 43.0594C57.8653 43.0594 61.4801 39.4445 61.4801 35.0001C61.4801 30.5557 57.8653 26.9409 53.4209 26.9409Z" fill="#41479B"/>
<path d="M53.4209 36.1226C54.0408 36.1226 54.5434 35.6201 54.5434 35.0002C54.5434 34.3802 54.0408 33.8777 53.4209 33.8777C52.801 33.8777 52.2985 34.3802 52.2985 35.0002C52.2985 35.6201 52.801 36.1226 53.4209 36.1226Z" fill="#41479B"/>
<path d="M53.4208 35.1685L50.5682 35.4564L44.4407 35.1685V34.8317L50.5682 34.5437L53.4208 34.8317V35.1685Z" fill="#41479B"/>
<path d="M53.4209 35.1685L56.2735 35.4564L62.401 35.1685V34.8317L56.2735 34.5437L53.4209 34.8317V35.1685Z" fill="#41479B"/>
<path d="M53.2524 35.0002L52.9645 32.1476L53.2524 26.02H53.5893L53.8772 32.1476L53.5893 35.0002H53.2524Z" fill="#41479B"/>
<path d="M53.2524 35.0001L52.9645 37.8527L53.2524 43.9803H53.5893L53.8772 37.8527L53.5893 35.0001H53.2524Z" fill="#41479B"/>
<path d="M53.3019 35.119L51.0812 33.3058L46.9519 28.7692L47.19 28.5311L51.7266 32.6604L53.5398 34.8811L53.3019 35.119Z" fill="#41479B"/>
<path d="M53.3019 35.119L55.1151 37.3397L59.6517 41.469L59.8898 41.2309L55.7605 36.6943L53.5398 34.8811L53.3019 35.119Z" fill="#41479B"/>
<path d="M53.3019 34.8811L55.1151 32.6604L59.6517 28.5311L59.8898 28.7692L55.7605 33.3058L53.5398 35.119L53.3019 34.8811Z" fill="#41479B"/>
<path d="M53.3019 34.8811L51.0812 36.6943L46.9519 41.2309L47.19 41.469L51.7266 37.3397L53.5398 35.119L53.3019 34.8811Z" fill="#41479B"/>
<path d="M53.4853 35.1558L50.9599 36.5135L45.1888 38.5923L45.0598 38.2812L50.6108 35.6702L53.3563 34.8445L53.4853 35.1558Z" fill="#41479B"/>
<path d="M53.4854 35.1558L56.231 34.33L61.7819 31.7191L61.653 31.408L55.8818 33.4868L53.3564 34.8444L53.4854 35.1558Z" fill="#41479B"/>
<path d="M53.2652 35.0646L51.9076 32.5392L49.8287 26.7681L50.1399 26.6392L52.7508 32.1901L53.5765 34.9357L53.2652 35.0646Z" fill="#41479B"/>
<path d="M53.2653 35.0646L54.091 37.8102L56.7019 43.3612L57.0131 43.2322L54.9342 37.4611L53.5766 34.9357L53.2653 35.0646Z" fill="#41479B"/>
<path d="M53.3563 35.1558L50.6108 34.33L45.0598 31.7191L45.1888 31.408L50.9599 33.4868L53.4853 34.8444L53.3563 35.1558Z" fill="#41479B"/>
<path d="M53.3564 35.1558L55.8818 36.5135L61.653 38.5923L61.7819 38.2812L56.231 35.6702L53.4854 34.8445L53.3564 35.1558Z" fill="#41479B"/>
<path d="M53.2653 34.9357L54.091 32.1901L56.7019 26.6392L57.0131 26.7681L54.9342 32.5392L53.5766 35.0646L53.2653 34.9357Z" fill="#41479B"/>
<path d="M53.2652 34.9357L51.9076 37.4611L49.8287 43.2322L50.1399 43.3612L52.7508 37.8102L53.5765 35.0646L53.2652 34.9357Z" fill="#41479B"/>
<path d="M53.4209 36.5143C54.2571 36.5143 54.935 35.8364 54.935 35.0001C54.935 34.1639 54.2571 33.486 53.4209 33.486C52.5846 33.486 51.9067 34.1639 51.9067 35.0001C51.9067 35.8364 52.5846 36.5143 53.4209 36.5143Z" fill="#F5F5F5"/>
<path d="M53.4209 35.9081C53.9223 35.9081 54.3288 35.5016 54.3288 35.0001C54.3288 34.4987 53.9223 34.0922 53.4209 34.0922C52.9194 34.0922 52.5129 34.4987 52.5129 35.0001C52.5129 35.5016 52.9194 35.9081 53.4209 35.9081Z" fill="#41479B"/>
</svg>
