<svg width="107" height="70" viewBox="0 0 107 70" fill="none" xmlns="http://www.w3.org/2000/svg">
<path d="M106.842 5.00007H0V1.84219C0 0.824893 0.824894 0 1.84219 0H105C106.017 0 106.842 0.824893 106.842 1.84219L106.842 5.00007Z" fill="#FF4B55"/>
<path d="M106.842 4.99878H0V9.99864H106.842V4.99878Z" fill="#F5F5F5"/>
<path d="M106.842 10.0007H0V15.0006H106.842V10.0007Z" fill="#FF4B55"/>
<path d="M106.842 14.9985H0V19.9984H106.842V14.9985Z" fill="#F5F5F5"/>
<path d="M106.842 20.0005H0V25.0004H106.842V20.0005Z" fill="#FF4B55"/>
<path d="M106.842 25.0004H0V30.0002H106.842V25.0004Z" fill="#F5F5F5"/>
<path d="M106.842 30.0002H0V35.0001H106.842V30.0002Z" fill="#FF4B55"/>
<path d="M106.842 35.0001H0V40H106.842V35.0001Z" fill="#F5F5F5"/>
<path d="M106.842 45.0002H0V36.8423H1.84219L1.8426 40H106.842V45.0002Z" fill="#FF4B55"/>
<path d="M106.842 44.9999H0V49.9997H106.842V44.9999Z" fill="#F5F5F5"/>
<path d="M106.842 49.9998H0V54.9996H106.842V49.9998Z" fill="#FF4B55"/>
<path d="M106.842 55.0017H0V60.0016H106.842V55.0017Z" fill="#F5F5F5"/>
<path d="M106.842 59.9994H0V64.9993H106.842V59.9994Z" fill="#FF4B55"/>
<path d="M105 70H1.84219C0.824894 70 0 69.1751 0 68.1578V64.9999H106.842V68.1578C106.842 69.1753 106.017 70 105 70Z" fill="#F5F5F5"/>
<path d="M64.4736 40H1.84219C0.824894 40 0 39.1751 0 38.1578V1.84219C0 0.824893 0.824894 0 1.84219 0H64.4736C65.4909 0 66.3158 0.824893 66.3158 1.84219V38.1578C66.3156 39.1755 65.4909 40 64.4736 40Z" fill="#41479B"/>
<path d="M17.4999 19.98C17.4999 13.013 23.155 7.36142 30.1156 7.36142C31.867 7.36142 33.5323 7.71992 35.0489 8.36598C35.2457 8.44987 35.3941 8.17588 35.2173 8.05526C32.708 6.34705 29.6392 5.41114 26.3476 5.58225C19.1109 5.95849 13.1935 11.7874 12.7257 19.0189C12.1816 27.4302 18.8376 34.398 27.1157 34.398C30.1073 34.398 32.8881 33.4763 35.1975 31.9136C35.3753 31.7932 35.228 31.5187 35.0304 31.6024C33.5187 32.2435 31.8602 32.5991 30.116 32.5991C23.155 32.5988 17.4999 26.9473 17.4999 19.98Z" fill="#FFE15A"/>
<path d="M46.3387 19.9801L51.672 17.9165C51.9356 17.8145 51.8458 17.4207 51.5639 17.4432L45.8654 17.8996L49.7814 13.7136C49.9746 13.5072 49.723 13.1919 49.4788 13.3342L44.5295 16.2214L46.2377 10.7591C46.322 10.4895 45.9585 10.3144 45.8005 10.5486L42.5965 15.2949L41.7745 9.62978C41.734 9.34995 41.3301 9.34974 41.2892 9.62957L40.7641 13.2142L40.5463 14.7313L40.4624 15.2951L37.2584 10.5527C37.1002 10.3186 36.7363 10.4939 36.8212 10.7635L38.5357 16.2212L33.5867 13.334C33.3426 13.1915 33.0909 13.507 33.2841 13.7134L37.1999 17.8994L31.5 17.443C31.2181 17.4205 31.1281 17.8142 31.3919 17.9163L36.73 19.9799L31.3917 22.0439C31.1277 22.1459 31.2178 22.5397 31.4998 22.5172L37.1999 22.0608L33.2839 26.2573C33.0909 26.4641 33.3432 26.7789 33.5871 26.6362L38.5359 23.7388L36.8214 29.1964C36.7367 29.4661 37.1002 29.6416 37.2586 29.4072L40.4626 24.6649L40.5465 25.242L40.7643 26.7458L41.2896 30.34C41.3305 30.62 41.7345 30.6196 41.7749 30.3398L42.5969 24.6653L45.8009 29.4116C45.9591 29.6457 46.3226 29.4711 46.2381 29.201L44.5299 23.7388L49.4786 26.6362C49.7226 26.7789 49.9746 26.4641 49.7818 26.2573L45.8656 22.0608L51.5643 22.5172C51.8463 22.5397 51.9362 22.1459 51.6724 22.0439L46.3387 19.9801Z" fill="#FFE15A"/>
</svg>
