<svg width="107" height="70" viewBox="0 0 107 70" fill="none" xmlns="http://www.w3.org/2000/svg">
<path d="M35.6134 69.9987H1.84215C0.82488 69.9987 0 69.1739 0 68.1566V1.84215C0 0.824879 0.82488 0 1.84215 0H35.6134V69.9987Z" fill="#73AF00"/>
<path d="M71.228 0.00109863H35.614V70.0001H71.228V0.00109863Z" fill="#F5F5F5"/>
<path d="M104.998 69.9988H71.2266V0.000244141H104.998C106.015 0.000244141 106.84 0.825123 106.84 1.8424V68.1568C106.84 69.1743 106.015 69.9988 104.998 69.9988Z" fill="#FF4B55"/>
<path d="M56.597 36.6471L53.4199 38.2359V39.8245H55.0085L56.597 36.6471Z" fill="#FFD250"/>
<path d="M53.42 43.7959C52.981 43.7959 52.6256 43.4405 52.6256 43.0015V39.8244C52.6256 39.3854 52.981 39.03 53.42 39.03C53.8591 39.03 54.2144 39.3854 54.2144 39.8244V43.0015C54.2144 43.4405 53.8591 43.7959 53.42 43.7959Z" fill="#00C3A0"/>
<path d="M53.42 40.6188C50.3001 40.6188 47.2875 39.415 44.9366 37.2291C44.6155 36.9305 44.5969 36.4278 44.8953 36.1069C45.1962 35.7866 45.6983 35.7695 46.0176 36.0656C48.0738 37.9776 50.7027 39.0302 53.4198 39.0302C56.1369 39.0302 58.7657 37.9776 60.822 36.0656C61.1423 35.7686 61.6442 35.7849 61.9442 36.1069C62.2428 36.428 62.2243 36.9307 61.9029 37.2291C59.5524 39.4152 56.5398 40.6188 53.42 40.6188Z" fill="#00C3A0"/>
<path d="M53.42 43.7959C51.3837 43.7959 49.4114 43.2009 47.7157 42.0747L48.5952 40.7513C51.4622 42.6563 55.3777 42.6563 58.2444 40.7513L59.124 42.0747C57.4285 43.2012 55.4562 43.7959 53.42 43.7959Z" fill="#00AADC"/>
<path d="M52.1623 33.0728L50.4085 35.7869L50.1105 36.6803L54.6777 35.6213L52.1623 33.0728Z" fill="#732D37"/>
<path d="M48.5587 37.5535C46.4591 37.5535 43.9387 35.7864 43.2701 31.8492L44.8371 31.584C45.3925 34.8581 47.4066 35.9671 48.6161 35.9642C48.9869 35.954 49.3738 35.8261 49.4043 35.564C49.4399 35.2506 49.4485 35.1763 48.6178 34.8954C48.1662 34.7425 47.6543 34.5697 47.2952 34.1586C45.8422 32.4994 47.8094 30.7435 48.7545 29.8996C48.9212 29.7506 48.9903 29.6241 48.9725 29.5762C48.9206 29.4403 48.6088 29.235 48.2574 29.235C47.2483 29.235 46.4826 28.6649 46.2602 27.748C46.029 26.7985 46.4657 25.7979 47.2973 25.3683L48.0266 26.78C47.8317 26.8807 47.7545 27.1677 47.804 27.3726C47.8234 27.4548 47.8707 27.6464 48.2578 27.6464C49.2304 27.6464 50.1559 28.2204 50.4568 29.01C50.5856 29.3466 50.7794 30.2216 49.813 31.0849C48.7697 32.0166 48.1453 32.7177 48.4913 33.1125C48.5696 33.2016 48.9055 33.3158 49.1274 33.3903C49.8425 33.6323 51.1736 34.0822 50.9829 35.746C50.8633 36.7922 49.9295 37.5182 48.6606 37.5526C48.6263 37.5526 48.5921 37.5535 48.5587 37.5535Z" fill="#AAD264"/>
<path d="M55.0085 28.7045C55.0085 28.7045 56.5972 25.5275 53.4199 23.9389C53.4199 23.9389 64.5398 22.3503 62.9512 36.6474L62.9506 36.6468C61.9081 35.8127 60.3601 34.2884 59.8074 33.0731L55.0085 30.2929V28.7045Z" fill="#874150"/>
<path d="M53.4199 31.8815L61.3626 36.6471C61.3626 36.6471 61.3626 36.6471 58.1856 38.2357L53.4199 33.4703V31.8815Z" fill="#732D37"/>
<path d="M50.2429 27.1159C51.1202 27.1159 51.8315 27.8272 51.8315 28.7045L51.8299 28.7062C50.8821 29.654 50.6473 31.1015 51.2466 32.3003L51.6055 33.0184C51.7552 33.3176 51.9522 33.591 52.1888 33.8276L56.5974 38.2362V36.0408C56.5974 33.3057 55.9607 30.6082 54.7375 28.1619C53.9302 26.5475 52.28 25.5275 50.475 25.5275H50.2431V27.1163H50.2429V27.1159Z" fill="#783C46"/>
<path d="M50.2429 25.5272L48.6543 27.1158V28.7045C48.6543 28.7045 50.544 27.7464 51.1809 27.4412C51.626 27.2279 51.545 26.7235 51.2896 26.4804C51.0907 26.2914 50.2429 25.5272 50.2429 25.5272Z" fill="#FFD250"/>
<path d="M53.42 46.9728C45.9744 46.9728 39.9172 40.9157 39.9172 33.4701H41.5059C41.5059 40.0401 46.8501 45.3844 53.4202 45.3844C59.9902 45.3844 65.3345 40.0401 65.3345 33.4701H66.9231C66.9227 40.9157 60.8656 46.9728 53.42 46.9728Z" fill="#AAD264"/>
<path d="M41.5924 39.2621C42.1878 39.2621 42.6704 38.7794 42.6704 38.1841C42.6704 37.5887 42.1878 37.1061 41.5924 37.1061C40.997 37.1061 40.5144 37.5887 40.5144 38.1841C40.5144 38.7794 40.997 39.2621 41.5924 39.2621Z" fill="#FFE15A"/>
<path d="M43.9755 43.068C44.5708 43.068 45.0535 42.5854 45.0535 41.99C45.0535 41.3946 44.5708 40.912 43.9755 40.912C43.3801 40.912 42.8975 41.3946 42.8975 41.99C42.8975 42.5854 43.3801 43.068 43.9755 43.068Z" fill="#FFE15A"/>
<path d="M47.8463 45.9458C48.4417 45.9458 48.9243 45.4632 48.9243 44.8678C48.9243 44.2724 48.4417 43.7898 47.8463 43.7898C47.2509 43.7898 46.7683 44.2724 46.7683 44.8678C46.7683 45.4632 47.2509 45.9458 47.8463 45.9458Z" fill="#FFE15A"/>
<path d="M65.3622 39.2621C65.9575 39.2621 66.4402 38.7794 66.4402 38.1841C66.4402 37.5887 65.9575 37.1061 65.3622 37.1061C64.7668 37.1061 64.2842 37.5887 64.2842 38.1841C64.2842 38.7794 64.7668 39.2621 65.3622 39.2621Z" fill="#FFE15A"/>
<path d="M62.977 43.068C63.5724 43.068 64.055 42.5854 64.055 41.99C64.055 41.3946 63.5724 40.912 62.977 40.912C62.3817 40.912 61.899 41.3946 61.899 41.99C61.899 42.5854 62.3817 43.068 62.977 43.068Z" fill="#FFE15A"/>
<path d="M59.1062 45.9458C59.7016 45.9458 60.1842 45.4632 60.1842 44.8678C60.1842 44.2724 59.7016 43.7898 59.1062 43.7898C58.5108 43.7898 58.0282 44.2724 58.0282 44.8678C58.0282 45.4632 58.5108 45.9458 59.1062 45.9458Z" fill="#FFE15A"/>
<path d="M54.2143 44.5901H52.6257C51.7485 44.5901 51.0371 43.8787 51.0371 43.0015C51.0371 42.1242 51.7485 41.4128 52.6257 41.4128H54.2143C55.0916 41.4128 55.803 42.1242 55.803 43.0015C55.803 43.8789 55.0916 44.5901 54.2143 44.5901Z" fill="#FFB478"/>
<path d="M59.8074 33.0728C60.337 34.6283 61.4621 36.0514 62.9506 36.6466L62.9512 36.6472C64.5398 22.3504 53.4199 23.9389 53.4199 23.9389C61.3626 23.9389 59.8074 33.0728 59.8074 33.0728Z" fill="#9B4B5A"/>
</svg>
