<svg width="107" height="70" viewBox="0 0 107 70" fill="none" xmlns="http://www.w3.org/2000/svg">
<path d="M105 70H27.6316V0.000213623H105C106.017 0.000213623 106.842 0.825109 106.842 1.8424V68.158C106.842 69.1753 106.017 70 105 70Z" fill="#73AF00"/>
<path d="M27.6316 70H1.84219C0.824894 70 0 69.1751 0 68.1578V1.84219C0 0.824893 0.824894 0 1.84219 0H27.6316V70Z" fill="#F5F5F5"/>
<path d="M85.9854 44.6384C77.5065 52.1916 64.5267 51.4156 56.9887 42.9216C49.4651 34.4434 50.2266 21.426 58.7053 13.8732C58.7178 13.8621 58.7299 13.8513 58.7424 13.8404C58.9427 13.6643 58.7491 13.3444 58.5003 13.4412C50.1387 16.6974 44.2104 24.8305 44.2104 34.3534C44.2104 46.7579 54.2417 56.8042 66.6166 56.8042C75.1771 56.8042 82.5957 51.9873 86.3642 44.9162C86.4898 44.6801 86.1951 44.4506 85.9956 44.6288C85.9925 44.6319 85.9888 44.6353 85.9854 44.6384Z" fill="#F5F5F5"/>
<path d="M75.0788 17.5943L78.0253 20.8999L82.107 19.1821C82.6353 18.9596 83.1428 19.5379 82.8536 20.0328L80.6201 23.8568L83.5151 27.2077C83.8899 27.6416 83.4967 28.3029 82.9366 28.1808L78.6098 27.2384L76.3172 31.0271C76.0205 31.5175 75.2701 31.3481 75.2129 30.7775L74.7722 26.3712L70.4606 25.3616C69.9024 25.2307 69.8316 24.4649 70.3566 24.2343L74.4112 22.4537L74.0389 18.0412C73.9907 17.4701 74.6975 17.1665 75.0788 17.5943Z" fill="#F5F5F5"/>
</svg>
