<svg width="107" height="70" viewBox="0 0 107 70" fill="none" xmlns="http://www.w3.org/2000/svg">
<path d="M0.67945 69.5547L53.4211 35L0.67945 0.445312C0.273574 0.783159 0 1.27271 0 1.84198V68.1578C0 68.7273 0.273574 69.2168 0.67945 69.5547Z" fill="#F5F5F5"/>
<path d="M0.679443 69.5547C0.998718 69.8205 1.39416 70 1.84198 70H105C106.017 70 106.842 69.1751 106.842 68.1578V35H53.4211L0.679443 69.5547Z" fill="#FF4B55"/>
<path d="M0.679443 0.445315C0.998718 0.179462 1.39416 0 1.84198 0H105C106.017 0 106.842 0.824896 106.842 1.84219V35H53.4211L0.679443 0.445315Z" fill="#41479B"/>
<path d="M19.3423 40.987C22.6488 40.987 25.3292 38.3066 25.3292 35.0001C25.3292 31.6936 22.6488 29.0132 19.3423 29.0132C16.0358 29.0132 13.3553 31.6936 13.3553 35.0001C13.3553 38.3066 16.0358 40.987 19.3423 40.987Z" fill="#FFE15A"/>
<path d="M19.3423 35.0001L17.0972 26.0199L19.3423 23.0265L21.5873 26.0199L19.3423 35.0001Z" fill="#FFE15A"/>
<path d="M19.3423 35L21.5873 43.9802L19.3423 46.9736L17.0972 43.9802L19.3423 35Z" fill="#FFE15A"/>
<path d="M19.3422 35L10.3619 37.2452L7.36841 35L10.3619 32.7549L19.3422 35Z" fill="#FFE15A"/>
<path d="M19.3423 35L28.3225 32.7549L31.3159 35L28.3225 37.2452L19.3423 35Z" fill="#FFE15A"/>
<path d="M19.3423 35L24.1047 27.0626L27.8089 26.5332L27.2797 30.2374L19.3423 35Z" fill="#FFE15A"/>
<path d="M19.3423 35L14.5797 42.9374L10.8755 43.4668L11.4049 39.7626L19.3423 35Z" fill="#FFE15A"/>
<path d="M19.3423 35L11.4049 30.2374L10.8755 26.5332L14.5797 27.0626L19.3423 35Z" fill="#FFE15A"/>
<path d="M19.3423 35L27.2797 39.7626L27.8089 43.4668L24.1047 42.9374L19.3423 35Z" fill="#FFE15A"/>
<path d="M4.93699 9.06035L5.24916 11.3892L3.14654 12.4384C2.87443 12.5742 2.93161 12.9785 3.23106 13.0331L5.54235 13.4559L5.89043 15.7797C5.9355 16.0806 6.33762 16.151 6.48223 15.883L7.59865 13.8155L9.91621 14.2023C10.2163 14.2526 10.4074 13.8916 10.1975 13.6717L8.57609 11.971L9.66016 9.88629C9.8006 9.61647 9.51638 9.32307 9.24218 9.45475L7.1237 10.4714L5.4762 8.79596C5.26335 8.57935 4.89671 8.75902 4.93699 9.06035Z" fill="#FFE15A"/>
<path d="M5.86426 54.3873L5.46986 56.7038L3.15063 57.0805C2.85035 57.1293 2.78503 57.5323 3.05443 57.6733L5.13556 58.7641L4.77726 61.0862C4.73094 61.3869 5.09383 61.5735 5.31148 61.3608L6.99194 59.7186L9.08997 60.7772C9.36167 60.9143 9.65131 60.6265 9.51651 60.354L8.47396 58.2482L10.1288 56.5803C10.3429 56.3643 10.1592 55.9999 9.8579 56.044L7.53283 56.3847L6.45773 54.2953C6.31855 54.025 5.91497 54.0872 5.86426 54.3873Z" fill="#FFE15A"/>
<path d="M42.3058 31.5684L40.9534 33.4899L38.6976 32.8325C38.4057 32.7474 38.1732 33.0831 38.3556 33.3265L39.7652 35.2064L38.4428 37.1488C38.2717 37.4002 38.519 37.7249 38.807 37.6266L41.0304 36.8671L42.469 38.7249C42.6554 38.9655 43.0406 38.8303 43.036 38.5263L43.0005 36.177L45.2121 35.3828C45.4984 35.2799 45.489 34.8717 45.1983 34.7822L42.9527 34.0898L42.8809 31.7411C42.8722 31.4367 42.4809 31.3194 42.3058 31.5684Z" fill="#FFE15A"/>
</svg>
