<svg width="107" height="70" viewBox="0 0 107 70" fill="none" xmlns="http://www.w3.org/2000/svg">
<path d="M106.842 35H0V1.84218C0 0.824891 0.824892 0 1.84218 0H105C106.017 0 106.842 0.824891 106.842 1.84218L106.842 35Z" fill="#FF4B55"/>
<path d="M0 35H106.842V68.1578C106.842 69.1751 106.017 70 104.999 70H1.84218C0.824892 70 0 69.1751 0 68.1578V35Z" fill="#F5F5F5"/>
<path d="M15.1433 17.5261C15.1433 11.4687 19.5881 6.44737 25.392 5.51856C25.7071 5.46806 25.7212 5.03464 25.4103 4.96286C23.9734 4.63252 22.4473 4.53841 20.8627 4.75418C14.6028 5.60683 9.76409 11.024 9.67561 17.341C9.57482 24.5541 15.3898 30.4275 22.5686 30.4275C23.5458 30.4275 24.4947 30.3133 25.4078 30.1032C25.7185 30.0318 25.7029 29.5973 25.3882 29.5468C19.5866 28.6187 15.1433 23.6071 15.1433 17.5261Z" fill="#F5F5F5"/>
<path d="M25.4876 20.7672L24.9423 22.4024L23.2189 22.4158C22.9958 22.4176 22.9032 22.7023 23.0828 22.8348L24.4693 23.8587L23.9493 25.5021C23.8821 25.7149 24.1243 25.8908 24.3057 25.761L25.708 24.7588L27.1103 25.761C27.2918 25.8908 27.5339 25.7147 27.4667 25.5021L26.9467 23.8587L28.3331 22.8348C28.5128 22.7021 28.4201 22.4176 28.197 22.4158L26.4736 22.4024L25.9283 20.7672C25.8576 20.5556 25.5581 20.5556 25.4876 20.7672Z" fill="#F5F5F5"/>
<path d="M34.0071 20.7672L33.4619 22.4024L31.7384 22.4158C31.5154 22.4176 31.4227 22.7023 31.6024 22.8348L32.9888 23.8587L32.4688 25.5021C32.4016 25.7149 32.6439 25.8908 32.8252 25.761L34.2275 24.7588L35.6298 25.761C35.8113 25.8908 36.0534 25.7147 35.9862 25.5021L35.4662 23.8587L36.8526 22.8348C37.0323 22.7021 36.9396 22.4176 36.7166 22.4158L34.9931 22.4024L34.4479 20.7672C34.3771 20.5556 34.0779 20.5556 34.0071 20.7672Z" fill="#F5F5F5"/>
<path d="M29.7858 7.61976L29.2406 9.25493L27.5171 9.26829C27.294 9.27017 27.2014 9.5548 27.3811 9.68731L28.7675 10.7113L28.2475 12.3546C28.1803 12.5674 28.4226 12.7434 28.6039 12.6136L30.0062 11.6113L31.4085 12.6136C31.59 12.7434 31.8321 12.5672 31.7649 12.3546L31.2449 10.7113L32.6313 9.68731C32.811 9.55459 32.7183 9.27017 32.4953 9.26829L30.7718 9.25493L30.2265 7.61976C30.1558 7.40816 29.8564 7.40816 29.7858 7.61976Z" fill="#F5F5F5"/>
<path d="M22.9931 12.6567L22.4478 14.2919L20.7244 14.3053C20.5013 14.3072 20.4087 14.5918 20.5883 14.7243L21.9748 15.7483L21.4547 17.3916C21.3876 17.6044 21.6298 17.7803 21.8112 17.6505L23.2135 16.6483L24.6158 17.6505C24.7973 17.7803 25.0394 17.6042 24.9722 17.3916L24.4522 15.7483L25.8386 14.7243C26.0183 14.5916 25.9256 14.3072 25.7025 14.3053L23.9791 14.2919L23.4338 12.6567C23.3631 12.4451 23.0638 12.4451 22.9931 12.6567Z" fill="#F5F5F5"/>
<path d="M36.5211 12.6567L35.9758 14.2919L34.2523 14.3053C34.0293 14.3072 33.9366 14.5918 34.1163 14.7243L35.5027 15.7483L34.9827 17.3916C34.9155 17.6044 35.1578 17.7803 35.3391 17.6505L36.7414 16.6483L38.1437 17.6505C38.3253 17.7803 38.5673 17.6042 38.5001 17.3916L37.9801 15.7483L39.3665 14.7243C39.5462 14.5916 39.4536 14.3072 39.2305 14.3053L37.507 14.2919L36.9618 12.6567C36.891 12.4451 36.5916 12.4451 36.5211 12.6567Z" fill="#F5F5F5"/>
</svg>
