<svg width="107" height="70" viewBox="0 0 107 70" fill="none" xmlns="http://www.w3.org/2000/svg">
<path d="M105.021 70H1.83661C0.813953 70 0 69.1652 0 68.1634V1.83661C0 0.813952 0.834824 0 1.83661 0H105C106.023 0 106.837 0.834823 106.837 1.83661V68.1634C106.857 69.186 106.023 70 105.021 70Z" fill="#F5F5F5"/>
<path d="M105.021 70H1.83661C0.813953 70 0 69.1652 0 68.1634V58.9595H106.857V68.1634C106.857 69.1861 106.023 70 105.021 70Z" fill="#FF4B55"/>
<path d="M1.83661 0H105C106.023 0 106.837 0.834823 106.837 1.83661V11.0405H0V1.83661C0 0.813952 0.834824 0 1.83661 0Z" fill="#FF4B55"/>
<path d="M106.857 22.1019H0V47.898H106.857V22.1019Z" fill="#41479B"/>
</svg>
