<svg width="107" height="70" viewBox="0 0 107 70" fill="none" xmlns="http://www.w3.org/2000/svg">
<path d="M105.053 69.9985H1.84312C0.825313 69.9985 0 69.1736 0 68.1563V1.84215C0 0.824875 0.825313 0 1.84312 0H105.053C106.071 0 106.896 0.824875 106.896 1.84215V68.1563C106.896 69.1736 106.071 69.9985 105.053 69.9985Z" fill="#41479B"/>
<path d="M106.896 1.84215C106.896 0.824875 106.071 0 105.053 0H96.8072L62.663 22.3585V0H44.2326V22.3585L10.0887 0H1.84312C0.825313 0 0 0.824875 0 1.84215V6.60631L29.2939 25.7888H0V44.2095H29.2939L0 63.3922V68.1563C0 69.1736 0.825313 69.9985 1.84312 69.9985H10.0889L44.2331 47.64V69.9985H62.6635V47.64L96.8076 69.9985H105.053C106.071 69.9985 106.897 69.1736 106.897 68.1563V63.3922L77.6026 44.2097H106.896V25.789H77.6022L106.896 6.60631V1.84215Z" fill="#F5F5F5"/>
<path d="M106.896 29.4731H58.9772V0H47.9189V29.4731H0V40.5254H47.9189V69.9985H58.9772V40.5254H106.896V29.4731Z" fill="#FF4B55"/>
<path d="M37.3611 44.2095L0.0522461 68.4147C0.182735 69.3042 0.916601 69.9985 1.84296 69.9985H4.38154L44.1314 44.2097H37.3611V44.2095Z" fill="#FF4B55"/>
<path d="M72.3194 44.2095H65.5491L105.241 69.9603C106.166 69.8618 106.896 69.1068 106.896 68.1561V66.6416L72.3194 44.2095Z" fill="#FF4B55"/>
<path d="M0.00012207 3.87567L33.7766 25.789H40.5469L1.07388 0.179688C0.443365 0.472453 0.00012207 1.10159 0.00012207 1.84217V3.87567Z" fill="#FF4B55"/>
<path d="M69.4336 25.7891L106.832 1.52542C106.677 0.665278 105.958 0.000244141 105.053 0.000244141H102.412L62.6632 25.7891H69.4336Z" fill="#FF4B55"/>
</svg>
