<svg width="160" height="105" viewBox="0 0 160 105" fill="none" xmlns="http://www.w3.org/2000/svg">
<path d="M157.241 105H2.75874C1.23531 105 0 103.763 0 102.237V2.76328C0 1.23734 1.23531 0 2.75874 0H157.241C158.765 0 160 1.23734 160 2.76328V102.237C160 103.763 158.764 105 157.241 105Z" fill="#F5F5F5"/>
<path d="M160 8.07731H0V2.76328C0 1.23734 1.23531 0 2.75874 0H157.241C158.765 0 160 1.23734 160 2.76328L160 8.07731Z" fill="#FF4B55"/>
<path d="M160 32.3077H0.000366211V40.3847H160V32.3077Z" fill="#FF4B55"/>
<path d="M160 16.1531H0.000366211V24.2301H160V16.1531Z" fill="#FF4B55"/>
<path d="M160 56.5386H2.75911C1.23568 56.5386 0.000366211 55.3013 0.000366211 53.7753V48.4613H160V56.5386Z" fill="#FF4B55"/>
<path d="M160 80.7715H0.000366211V88.8485H160V80.7715Z" fill="#FF4B55"/>
<path d="M157.241 105H2.75911C1.23568 105 0.000366211 103.763 0.000366211 102.237V96.923H160V102.237C160 103.763 158.765 105 157.241 105Z" fill="#FF4B55"/>
<path d="M160 64.6169H0.000366211V72.6939H160V64.6169Z" fill="#FF4B55"/>
<path d="M71.7239 0.000976562H2.75874C1.23531 0.000976562 0 1.238 0 2.76394V53.7757C0 55.3017 1.23531 56.539 2.75874 56.539H71.7242C73.2477 56.539 74.483 55.3017 74.483 53.7757V2.76394C74.4827 1.238 73.2474 0.000976562 71.7239 0.000976562Z" fill="#41479B"/>
<path d="M7.74695 6.34233L8.35758 8.17659L10.2879 8.1913C10.5379 8.19349 10.6413 8.51276 10.4404 8.66144L8.88757 9.8102L9.47007 11.6535C9.5457 11.8921 9.27414 12.0899 9.0707 11.944L7.50039 10.82L5.93008 11.9443C5.72664 12.0899 5.45571 11.8924 5.53071 11.6539L6.11321 9.81051L4.5604 8.66176C4.35946 8.51276 4.4629 8.1938 4.71289 8.19161L6.6432 8.1769L7.25383 6.34264C7.33258 6.10475 7.66758 6.10475 7.74695 6.34233Z" fill="#F5F5F5"/>
<path d="M7.74671 15.9373L8.35733 17.7716L10.2876 17.7863C10.5376 17.7885 10.6411 18.1077 10.4401 18.2564L8.88733 19.4052L9.46983 21.2485C9.54545 21.487 9.27389 21.6849 9.07046 21.539L7.50015 20.415L5.92984 21.5393C5.7264 21.6849 5.45546 21.4873 5.53046 21.2488L6.11296 19.4055L4.56015 18.2567C4.35921 18.1077 4.46265 17.7888 4.71265 17.7866L6.64296 17.7719L7.25358 15.9376C7.33233 15.7 7.66733 15.7 7.74671 15.9373Z" fill="#F5F5F5"/>
<path d="M7.74671 25.5324L8.35733 27.3667L10.2876 27.3814C10.5376 27.3836 10.6411 27.7028 10.4401 27.8515L8.88733 29.0003L9.46983 30.8436C9.54545 31.0821 9.27389 31.28 9.07046 31.1341L7.50015 30.0101L5.92984 31.1344C5.7264 31.28 5.45546 31.0824 5.53046 30.8439L6.11296 29.0006L4.56015 27.8518C4.35921 27.7028 4.46265 27.3839 4.71265 27.3817L6.64296 27.367L7.25358 25.5327C7.33233 25.2951 7.66733 25.2951 7.74671 25.5324Z" fill="#F5F5F5"/>
<path d="M7.74671 35.1279L8.35733 36.9621L10.2876 36.9768C10.5376 36.979 10.6411 37.2983 10.4401 37.447L8.88733 38.5957L9.46983 40.4391C9.54545 40.6776 9.27389 40.8754 9.07046 40.7295L7.50015 39.6055L5.92984 40.7298C5.7264 40.8754 5.45546 40.6779 5.53046 40.4394L6.11296 38.596L4.56015 37.4473C4.35921 37.2983 4.46265 36.9793 4.71265 36.9771L6.64296 36.9624L7.25358 35.1282C7.33233 34.8903 7.66733 34.8903 7.74671 35.1279Z" fill="#F5F5F5"/>
<path d="M7.74671 44.7229L8.35733 46.5572L10.2876 46.5719C10.5376 46.5741 10.6411 46.8934 10.4401 47.042L8.88733 48.1908L9.46983 50.0341C9.54545 50.2727 9.27389 50.4705 9.07046 50.3246L7.50015 49.2006L5.92984 50.3249C5.7264 50.4705 5.45546 50.273 5.53046 50.0345L6.11296 48.1911L4.56015 47.0424C4.35921 46.8934 4.46265 46.5744 4.71265 46.5722L6.64296 46.5575L7.25358 44.7232C7.33233 44.485 7.66733 44.485 7.74671 44.7229Z" fill="#F5F5F5"/>
<path d="M15.1823 11.0465L15.7929 12.8807L17.7232 12.8954C17.9732 12.8976 18.0766 13.2169 17.8757 13.3656L16.3229 14.5144L16.9054 16.3577C16.981 16.5962 16.7094 16.794 16.506 16.6482L14.9357 15.5238L13.3654 16.6482C13.1619 16.7937 12.891 16.5962 12.966 16.3577L13.5485 14.5144L11.9957 13.3656C11.7948 13.2166 11.8982 12.8976 12.1482 12.8954L14.0785 12.8807L14.6891 11.0465C14.7676 10.8092 15.1032 10.8092 15.1823 11.0465Z" fill="#F5F5F5"/>
<path d="M15.1823 20.6419L15.7929 22.4762L17.7232 22.4909C17.9732 22.4931 18.0766 22.8124 17.8757 22.961L16.3229 24.1098L16.9054 25.9531C16.981 26.1917 16.7094 26.3895 16.506 26.2436L14.9357 25.1193L13.3654 26.2436C13.1619 26.3892 12.891 26.192 12.966 25.9531L13.5485 24.1098L11.9957 22.961C11.7948 22.812 11.8982 22.4931 12.1482 22.4909L14.0785 22.4762L14.6891 20.6419C14.7676 20.4044 15.1032 20.4044 15.1823 20.6419Z" fill="#F5F5F5"/>
<path d="M15.1823 30.237L15.7929 32.0713L17.7232 32.086C17.9732 32.0882 18.0766 32.4075 17.8757 32.5561L16.3229 33.7049L16.9054 35.5482C16.981 35.7867 16.7094 35.9846 16.506 35.8387L14.9357 34.7144L13.3654 35.8387C13.1619 35.9843 12.891 35.7867 12.966 35.5482L13.5485 33.7049L11.9957 32.5561C11.7948 32.4071 11.8982 32.0882 12.1482 32.086L14.0785 32.0713L14.6891 30.237C14.7676 29.9994 15.1032 29.9994 15.1823 30.237Z" fill="#F5F5F5"/>
<path d="M15.1823 39.8321L15.7929 41.6664L17.7232 41.6811C17.9732 41.6833 18.0766 42.0026 17.8757 42.1512L16.3229 43.3L16.9054 45.1433C16.981 45.3818 16.7094 45.5797 16.506 45.4338L14.9357 44.3095L13.3654 45.4338C13.1619 45.5794 12.891 45.3818 12.966 45.1433L13.5485 43.3L11.9957 42.1512C11.7948 42.0022 11.8982 41.6833 12.1482 41.6811L14.0785 41.6664L14.6891 39.8321C14.7676 39.5949 15.1032 39.5949 15.1823 39.8321Z" fill="#F5F5F5"/>
<path d="M22.6174 6.34212L23.2281 8.17638L25.1584 8.19109C25.4084 8.19328 25.5118 8.51256 25.3109 8.66124L23.7581 9.81L24.3406 11.6533C24.4162 11.8918 24.1446 12.0897 23.9412 11.9438L22.3709 10.8195L20.8006 11.9438C20.5971 12.0894 20.3262 11.8918 20.4012 11.6533L20.9837 9.81L19.4309 8.66124C19.2299 8.51224 19.3334 8.19328 19.5834 8.19109L21.5137 8.17638L22.1243 6.34212C22.2031 6.10455 22.5384 6.10455 22.6174 6.34212Z" fill="#F5F5F5"/>
<path d="M22.6174 15.9373L23.2281 17.7716L25.1584 17.7863C25.4084 17.7885 25.5118 18.1078 25.3109 18.2565L23.7581 19.4052L24.3406 21.2486C24.4162 21.4871 24.1446 21.6849 23.9412 21.539L22.3709 20.4147L20.8006 21.539C20.5971 21.6846 20.3262 21.4871 20.4012 21.2486L20.9837 19.4052L19.4309 18.2565C19.2299 18.1075 19.3334 17.7885 19.5834 17.7863L21.5137 17.7716L22.1243 15.9373C22.2031 15.7001 22.5384 15.7001 22.6174 15.9373Z" fill="#F5F5F5"/>
<path d="M22.6174 25.5323L23.2281 27.3666L25.1584 27.3813C25.4084 27.3835 25.5118 27.7028 25.3109 27.8514L23.7581 29.0002L24.3406 30.8435C24.4162 31.082 24.1446 31.2799 23.9412 31.134L22.3709 30.0097L20.8006 31.134C20.5971 31.2796 20.3262 31.082 20.4012 30.8435L20.9837 29.0002L19.4309 27.8514C19.2299 27.7024 19.3334 27.3835 19.5834 27.3813L21.5137 27.3666L22.1243 25.5323C22.2031 25.2951 22.5384 25.2951 22.6174 25.5323Z" fill="#F5F5F5"/>
<path d="M22.6174 35.1279L23.2281 36.9621L25.1584 36.9769C25.4084 36.9791 25.5118 37.2983 25.3109 37.447L23.7581 38.5958L24.3406 40.4391C24.4162 40.6776 24.1446 40.8754 23.9412 40.7296L22.3709 39.6052L20.8006 40.7296C20.5971 40.8751 20.3262 40.6776 20.4012 40.4391L20.9837 38.5958L19.4309 37.447C19.2299 37.298 19.3334 36.9791 19.5834 36.9769L21.5137 36.9621L22.1243 35.1279C22.2031 34.8903 22.5384 34.8903 22.6174 35.1279Z" fill="#F5F5F5"/>
<path d="M22.6174 44.723L23.2281 46.5572L25.1584 46.5719C25.4084 46.5741 25.5118 46.8934 25.3109 47.0421L23.7581 48.1908L24.3406 50.0342C24.4162 50.2727 24.1446 50.4705 23.9412 50.3247L22.3709 49.2003L20.8006 50.3247C20.5971 50.4702 20.3262 50.2727 20.4012 50.0342L20.9837 48.1908L19.4309 47.0421C19.2299 46.8931 19.3334 46.5741 19.5834 46.5719L21.5137 46.5572L22.1243 44.723C22.2031 44.4851 22.5384 44.4851 22.6174 44.723Z" fill="#F5F5F5"/>
<path d="M30.053 11.0465L30.6637 12.8807L32.594 12.8954C32.844 12.8976 32.9474 13.2169 32.7465 13.3656L31.1937 14.5144L31.7762 16.3577C31.8518 16.5962 31.5802 16.794 31.3768 16.6482L29.8065 15.5238L28.2362 16.6482C28.0327 16.7937 27.7618 16.5962 27.8368 16.3577L28.4193 14.5144L26.8665 13.3656C26.6655 13.2166 26.769 12.8976 27.019 12.8954L28.9493 12.8807L29.5599 11.0465C29.6384 10.8092 29.974 10.8092 30.053 11.0465Z" fill="#F5F5F5"/>
<path d="M30.053 20.6419L30.6637 22.4762L32.594 22.4909C32.844 22.4931 32.9474 22.8124 32.7465 22.961L31.1937 24.1098L31.7762 25.9531C31.8518 26.1917 31.5802 26.3895 31.3768 26.2436L29.8065 25.1193L28.2362 26.2436C28.0327 26.3892 27.7618 26.192 27.8368 25.9531L28.4193 24.1098L26.8665 22.961C26.6655 22.812 26.769 22.4931 27.019 22.4909L28.9493 22.4762L29.5599 20.6419C29.6384 20.4044 29.974 20.4044 30.053 20.6419Z" fill="#F5F5F5"/>
<path d="M30.053 30.237L30.6637 32.0713L32.594 32.086C32.844 32.0882 32.9474 32.4075 32.7465 32.5561L31.1937 33.7049L31.7762 35.5482C31.8518 35.7867 31.5802 35.9846 31.3768 35.8387L29.8065 34.7144L28.2362 35.8387C28.0327 35.9843 27.7618 35.7867 27.8368 35.5482L28.4193 33.7049L26.8665 32.5561C26.6655 32.4071 26.769 32.0882 27.019 32.086L28.9493 32.0713L29.5599 30.237C29.6384 29.9994 29.974 29.9994 30.053 30.237Z" fill="#F5F5F5"/>
<path d="M30.053 39.8321L30.6637 41.6664L32.594 41.6811C32.844 41.6833 32.9474 42.0026 32.7465 42.1512L31.1937 43.3L31.7762 45.1433C31.8518 45.3818 31.5802 45.5797 31.3768 45.4338L29.8065 44.3095L28.2362 45.4338C28.0327 45.5794 27.7618 45.3818 27.8368 45.1433L28.4193 43.3L26.8665 42.1512C26.6655 42.0022 26.769 41.6833 27.019 41.6811L28.9493 41.6664L29.5599 39.8321C29.6384 39.5949 29.974 39.5949 30.053 39.8321Z" fill="#F5F5F5"/>
<path d="M37.4885 6.34212L38.0992 8.17638L40.0295 8.19109C40.2795 8.19328 40.3829 8.51256 40.182 8.66124L38.6292 9.81L39.2117 11.6533C39.2873 11.8918 39.0157 12.0897 38.8123 11.9438L37.2417 10.8195L35.6714 11.9438C35.4679 12.0894 35.197 11.8918 35.272 11.6533L35.8545 9.81L34.3017 8.66124C34.1007 8.51224 34.2042 8.19328 34.4542 8.19109L36.3845 8.17638L36.9951 6.34212C37.0742 6.10455 37.4095 6.10455 37.4885 6.34212Z" fill="#F5F5F5"/>
<path d="M37.4885 15.9373L38.0992 17.7716L40.0295 17.7863C40.2795 17.7885 40.3829 18.1078 40.182 18.2565L38.6292 19.4052L39.2117 21.2486C39.2873 21.4871 39.0157 21.6849 38.8123 21.539L37.2417 20.4147L35.6714 21.539C35.4679 21.6846 35.197 21.4871 35.272 21.2486L35.8545 19.4052L34.3017 18.2565C34.1007 18.1075 34.2042 17.7885 34.4542 17.7863L36.3845 17.7716L36.9951 15.9373C37.0742 15.7001 37.4095 15.7001 37.4885 15.9373Z" fill="#F5F5F5"/>
<path d="M37.4885 25.5323L38.0992 27.3666L40.0295 27.3813C40.2795 27.3835 40.3829 27.7028 40.182 27.8514L38.6292 29.0002L39.2117 30.8435C39.2873 31.082 39.0157 31.2799 38.8123 31.134L37.2417 30.0097L35.6714 31.134C35.4679 31.2796 35.197 31.082 35.272 30.8435L35.8545 29.0002L34.3017 27.8514C34.1007 27.7024 34.2042 27.3835 34.4542 27.3813L36.3845 27.3666L36.9951 25.5323C37.0742 25.2951 37.4095 25.2951 37.4885 25.5323Z" fill="#F5F5F5"/>
<path d="M37.4885 35.1279L38.0992 36.9621L40.0295 36.9769C40.2795 36.9791 40.3829 37.2983 40.182 37.447L38.6292 38.5958L39.2117 40.4391C39.2873 40.6776 39.0157 40.8754 38.8123 40.7296L37.2417 39.6052L35.6714 40.7296C35.4679 40.8751 35.197 40.6776 35.272 40.4391L35.8545 38.5958L34.3017 37.447C34.1007 37.298 34.2042 36.9791 34.4542 36.9769L36.3845 36.9621L36.9951 35.1279C37.0742 34.8903 37.4095 34.8903 37.4885 35.1279Z" fill="#F5F5F5"/>
<path d="M37.4885 44.723L38.0992 46.5572L40.0295 46.5719C40.2795 46.5741 40.3829 46.8934 40.182 47.0421L38.6292 48.1908L39.2117 50.0342C39.2873 50.2727 39.0157 50.4705 38.8123 50.3247L37.2417 49.2003L35.6714 50.3247C35.4679 50.4702 35.197 50.2727 35.272 50.0342L35.8545 48.1908L34.3017 47.0421C34.1007 46.8931 34.2042 46.5741 34.4542 46.5719L36.3845 46.5572L36.9951 44.723C37.0742 44.4851 37.4095 44.4851 37.4885 44.723Z" fill="#F5F5F5"/>
<path d="M44.9238 11.0465L45.5344 12.8807L47.4647 12.8954C47.7147 12.8976 47.8181 13.2169 47.6172 13.3656L46.0644 14.5144L46.6469 16.3577C46.7225 16.5962 46.451 16.794 46.2475 16.6482L44.6772 15.5238L43.1069 16.6482C42.9035 16.7937 42.6325 16.5962 42.7075 16.3577L43.29 14.5144L41.7372 13.3656C41.5363 13.2166 41.6397 12.8976 41.8897 12.8954L43.82 12.8807L44.4306 11.0465C44.5097 10.8092 44.8447 10.8092 44.9238 11.0465Z" fill="#F5F5F5"/>
<path d="M44.9238 20.6419L45.5344 22.4762L47.4647 22.4909C47.7147 22.4931 47.8181 22.8124 47.6172 22.961L46.0644 24.1098L46.6469 25.9531C46.7225 26.1917 46.451 26.3895 46.2475 26.2436L44.6772 25.1193L43.1069 26.2436C42.9035 26.3892 42.6325 26.192 42.7075 25.9531L43.29 24.1098L41.7372 22.961C41.5363 22.812 41.6397 22.4931 41.8897 22.4909L43.82 22.4762L44.4306 20.6419C44.5097 20.4044 44.8447 20.4044 44.9238 20.6419Z" fill="#F5F5F5"/>
<path d="M44.9238 30.237L45.5344 32.0713L47.4647 32.086C47.7147 32.0882 47.8181 32.4075 47.6172 32.5561L46.0644 33.7049L46.6469 35.5482C46.7225 35.7867 46.451 35.9846 46.2475 35.8387L44.6772 34.7144L43.1069 35.8387C42.9035 35.9843 42.6325 35.7867 42.7075 35.5482L43.29 33.7049L41.7372 32.5561C41.5363 32.4071 41.6397 32.0882 41.8897 32.086L43.82 32.0713L44.4306 30.237C44.5097 29.9994 44.8447 29.9994 44.9238 30.237Z" fill="#F5F5F5"/>
<path d="M44.9238 39.8321L45.5344 41.6664L47.4647 41.6811C47.7147 41.6833 47.8181 42.0026 47.6172 42.1512L46.0644 43.3L46.6469 45.1433C46.7225 45.3818 46.451 45.5797 46.2475 45.4338L44.6772 44.3095L43.1069 45.4338C42.9035 45.5794 42.6325 45.3818 42.7075 45.1433L43.29 43.3L41.7372 42.1512C41.5363 42.0022 41.6397 41.6833 41.8897 41.6811L43.82 41.6664L44.4306 39.8321C44.5097 39.5949 44.8447 39.5949 44.9238 39.8321Z" fill="#F5F5F5"/>
<path d="M52.3593 6.34212L52.9699 8.17638L54.9002 8.19109C55.1502 8.19328 55.2537 8.51256 55.0527 8.66124L53.4999 9.81L54.0824 11.6533C54.1581 11.8918 53.8865 12.0897 53.6831 11.9438L52.1128 10.8195L50.5424 11.9438C50.339 12.0894 50.0681 11.8918 50.1431 11.6533L50.7256 9.81L49.1728 8.66124C48.9718 8.51224 49.0753 8.19328 49.3253 8.19109L51.2556 8.17638L51.8662 6.34212C51.9446 6.10455 52.2803 6.10455 52.3593 6.34212Z" fill="#F5F5F5"/>
<path d="M52.3593 15.9373L52.9699 17.7716L54.9002 17.7863C55.1502 17.7885 55.2537 18.1078 55.0527 18.2565L53.4999 19.4052L54.0824 21.2486C54.1581 21.4871 53.8865 21.6849 53.6831 21.539L52.1128 20.4147L50.5424 21.539C50.339 21.6846 50.0681 21.4871 50.1431 21.2486L50.7256 19.4052L49.1728 18.2565C48.9718 18.1075 49.0753 17.7885 49.3253 17.7863L51.2556 17.7716L51.8662 15.9373C51.9446 15.7001 52.2803 15.7001 52.3593 15.9373Z" fill="#F5F5F5"/>
<path d="M52.3593 25.5323L52.9699 27.3666L54.9002 27.3813C55.1502 27.3835 55.2537 27.7028 55.0527 27.8514L53.4999 29.0002L54.0824 30.8435C54.1581 31.082 53.8865 31.2799 53.6831 31.134L52.1128 30.0097L50.5424 31.134C50.339 31.2796 50.0681 31.082 50.1431 30.8435L50.7256 29.0002L49.1728 27.8514C48.9718 27.7024 49.0753 27.3835 49.3253 27.3813L51.2556 27.3666L51.8662 25.5323C51.9446 25.2951 52.2803 25.2951 52.3593 25.5323Z" fill="#F5F5F5"/>
<path d="M52.3593 35.1279L52.9699 36.9621L54.9002 36.9769C55.1502 36.9791 55.2537 37.2983 55.0527 37.447L53.4999 38.5958L54.0824 40.4391C54.1581 40.6776 53.8865 40.8754 53.6831 40.7296L52.1128 39.6052L50.5424 40.7296C50.339 40.8751 50.0681 40.6776 50.1431 40.4391L50.7256 38.5958L49.1728 37.447C48.9718 37.298 49.0753 36.9791 49.3253 36.9769L51.2556 36.9621L51.8662 35.1279C51.9446 34.8903 52.2803 34.8903 52.3593 35.1279Z" fill="#F5F5F5"/>
<path d="M52.3593 44.723L52.9699 46.5572L54.9002 46.5719C55.1502 46.5741 55.2537 46.8934 55.0527 47.0421L53.4999 48.1908L54.0824 50.0342C54.1581 50.2727 53.8865 50.4705 53.6831 50.3247L52.1128 49.2003L50.5424 50.3247C50.339 50.4702 50.0681 50.2727 50.1431 50.0342L50.7256 48.1908L49.1728 47.0421C48.9718 46.8931 49.0753 46.5741 49.3253 46.5719L51.2556 46.5572L51.8662 44.723C51.9446 44.4851 52.2803 44.4851 52.3593 44.723Z" fill="#F5F5F5"/>
<path d="M59.7945 11.0465L60.4051 12.8807L62.3354 12.8954C62.5854 12.8976 62.6889 13.2169 62.4879 13.3656L60.9351 14.5144L61.5176 16.3577C61.5932 16.5962 61.3217 16.794 61.1182 16.6482L59.5479 15.5238L57.9776 16.6482C57.7742 16.7937 57.5033 16.5962 57.5783 16.3577L58.1607 14.5144L56.6079 13.3656C56.407 13.2166 56.5104 12.8976 56.7604 12.8954L58.6907 12.8807L59.3014 11.0465C59.3801 10.8092 59.7157 10.8092 59.7945 11.0465Z" fill="#F5F5F5"/>
<path d="M59.7945 20.6419L60.4051 22.4762L62.3354 22.4909C62.5854 22.4931 62.6889 22.8124 62.4879 22.961L60.9351 24.1098L61.5176 25.9531C61.5932 26.1917 61.3217 26.3895 61.1182 26.2436L59.5479 25.1193L57.9776 26.2436C57.7742 26.3892 57.5033 26.192 57.5783 25.9531L58.1607 24.1098L56.6079 22.961C56.407 22.812 56.5104 22.4931 56.7604 22.4909L58.6907 22.4762L59.3014 20.6419C59.3801 20.4044 59.7157 20.4044 59.7945 20.6419Z" fill="#F5F5F5"/>
<path d="M59.7945 30.237L60.4051 32.0713L62.3354 32.086C62.5854 32.0882 62.6889 32.4075 62.4879 32.5561L60.9351 33.7049L61.5176 35.5482C61.5932 35.7867 61.3217 35.9846 61.1182 35.8387L59.5479 34.7144L57.9776 35.8387C57.7742 35.9843 57.5033 35.7867 57.5783 35.5482L58.1607 33.7049L56.6079 32.5561C56.407 32.4071 56.5104 32.0882 56.7604 32.086L58.6907 32.0713L59.3014 30.237C59.3801 29.9994 59.7157 29.9994 59.7945 30.237Z" fill="#F5F5F5"/>
<path d="M59.7945 39.8321L60.4051 41.6664L62.3354 41.6811C62.5854 41.6833 62.6889 42.0026 62.4879 42.1512L60.9351 43.3L61.5176 45.1433C61.5932 45.3818 61.3217 45.5797 61.1182 45.4338L59.5479 44.3095L57.9776 45.4338C57.7742 45.5794 57.5033 45.3818 57.5783 45.1433L58.1607 43.3L56.6079 42.1512C56.407 42.0022 56.5104 41.6833 56.7604 41.6811L58.6907 41.6664L59.3014 39.8321C59.3801 39.5949 59.7157 39.5949 59.7945 39.8321Z" fill="#F5F5F5"/>
<path d="M67.2301 6.34212L67.8407 8.17638L69.771 8.19109C70.021 8.19328 70.1245 8.51256 69.9235 8.66124L68.3707 9.81L68.9532 11.6533C69.0289 11.8918 68.7573 12.0897 68.5539 11.9438L66.9835 10.8195L65.4132 11.9438C65.2098 12.0894 64.9389 11.8918 65.0139 11.6533L65.5964 9.81L64.0435 8.66124C63.8426 8.51224 63.9461 8.19328 64.1961 8.19109L66.1264 8.17638L66.737 6.34212C66.8157 6.10455 67.1507 6.10455 67.2301 6.34212Z" fill="#F5F5F5"/>
<path d="M67.2301 15.9373L67.8407 17.7716L69.771 17.7863C70.021 17.7885 70.1245 18.1078 69.9235 18.2565L68.3707 19.4052L68.9532 21.2486C69.0289 21.4871 68.7573 21.6849 68.5539 21.539L66.9835 20.4147L65.4132 21.539C65.2098 21.6846 64.9389 21.4871 65.0139 21.2486L65.5964 19.4052L64.0435 18.2565C63.8426 18.1075 63.9461 17.7885 64.1961 17.7863L66.1264 17.7716L66.737 15.9373C66.8157 15.7001 67.1507 15.7001 67.2301 15.9373Z" fill="#F5F5F5"/>
<path d="M67.2301 25.5323L67.8407 27.3666L69.771 27.3813C70.021 27.3835 70.1245 27.7028 69.9235 27.8514L68.3707 29.0002L68.9532 30.8435C69.0289 31.082 68.7573 31.2799 68.5539 31.134L66.9835 30.0097L65.4132 31.134C65.2098 31.2796 64.9389 31.082 65.0139 30.8435L65.5964 29.0002L64.0435 27.8514C63.8426 27.7024 63.9461 27.3835 64.1961 27.3813L66.1264 27.3666L66.737 25.5323C66.8157 25.2951 67.1507 25.2951 67.2301 25.5323Z" fill="#F5F5F5"/>
<path d="M67.2301 35.1279L67.8407 36.9621L69.771 36.9769C70.021 36.9791 70.1245 37.2983 69.9235 37.447L68.3707 38.5958L68.9532 40.4391C69.0289 40.6776 68.7573 40.8754 68.5539 40.7296L66.9835 39.6052L65.4132 40.7296C65.2098 40.8751 64.9389 40.6776 65.0139 40.4391L65.5964 38.5958L64.0435 37.447C63.8426 37.298 63.9461 36.9791 64.1961 36.9769L66.1264 36.9621L66.737 35.1279C66.8157 34.8903 67.1507 34.8903 67.2301 35.1279Z" fill="#F5F5F5"/>
<path d="M67.2301 44.723L67.8407 46.5572L69.771 46.5719C70.021 46.5741 70.1245 46.8934 69.9235 47.0421L68.3707 48.1908L68.9532 50.0342C69.0289 50.2727 68.7573 50.4705 68.5539 50.3247L66.9835 49.2003L65.4132 50.3247C65.2098 50.4702 64.9389 50.2727 65.0139 50.0342L65.5964 48.1908L64.0435 47.0421C63.8426 46.8931 63.9461 46.5741 64.1961 46.5719L66.1264 46.5572L66.737 44.723C66.8157 44.4851 67.1507 44.4851 67.2301 44.723Z" fill="#F5F5F5"/>
</svg>
